<svg width="400" height="320" viewBox="0 0 400 320" fill="none" xmlns="http://www.w3.org/2000/svg">
<path d="M45.824 158.352C45.824 162.213 44.7253 165.125 42.528 167.088C40.352 169.029 37.2907 170 33.344 170H26.88V147.152H34.048C36.4373 147.152 38.5067 147.579 40.256 148.432C42.0267 149.285 43.392 150.544 44.352 152.208C45.3333 153.851 45.824 155.899 45.824 158.352ZM40.8 158.48C40.8 155.941 40.2453 154.085 39.136 152.912C38.0267 151.717 36.416 151.12 34.304 151.12H31.712V166H33.792C38.464 166 40.8 163.493 40.8 158.48ZM57.3515 152.176C59.6982 152.176 61.4902 152.688 62.7275 153.712C63.9862 154.715 64.6155 156.261 64.6155 158.352V170H61.2875L60.3595 167.632H60.2315C59.4848 168.571 58.6955 169.253 57.8635 169.68C57.0315 170.107 55.8902 170.32 54.4395 170.32C52.8822 170.32 51.5915 169.872 50.5675 168.976C49.5435 168.059 49.0315 166.661 49.0315 164.784C49.0315 162.928 49.6822 161.563 50.9835 160.688C52.2848 159.792 54.2368 159.301 56.8395 159.216L59.8795 159.12V158.352C59.8795 157.435 59.6342 156.763 59.1435 156.336C58.6742 155.909 58.0128 155.696 57.1595 155.696C56.3062 155.696 55.4742 155.824 54.6635 156.08C53.8528 156.315 53.0422 156.613 52.2315 156.976L50.6635 153.744C51.6022 153.253 52.6368 152.869 53.7675 152.592C54.9195 152.315 56.1142 152.176 57.3515 152.176ZM58.0235 161.968C56.4875 162.011 55.4208 162.288 54.8235 162.8C54.2262 163.312 53.9275 163.984 53.9275 164.816C53.9275 165.541 54.1408 166.064 54.5675 166.384C54.9942 166.683 55.5488 166.832 56.2315 166.832C57.2555 166.832 58.1195 166.533 58.8235 165.936C59.5275 165.317 59.8795 164.453 59.8795 163.344V161.904L58.0235 161.968ZM67 152.528H72.216L75.512 162.352C75.6827 162.821 75.8107 163.312 75.896 163.824C75.9813 164.315 76.0453 164.837 76.088 165.392H76.184C76.248 164.837 76.3333 164.315 76.44 163.824C76.568 163.312 76.7067 162.821 76.856 162.352L80.088 152.528H85.208L77.816 172.24C77.1547 174.053 76.184 175.408 74.904 176.304C73.6453 177.221 72.184 177.68 70.52 177.68C69.9867 177.68 69.5173 177.648 69.112 177.584C68.728 177.541 68.3867 177.488 68.088 177.424V173.648C68.3227 173.691 68.6 173.733 68.92 173.776C69.2613 173.819 69.6133 173.84 69.976 173.84C70.9787 173.84 71.768 173.531 72.344 172.912C72.9413 172.315 73.3787 171.589 73.656 170.736L73.944 169.872L67 152.528ZM109.883 163.664C109.883 165.691 109.147 167.312 107.675 168.528C106.225 169.723 104.155 170.32 101.467 170.32C99.0566 170.32 96.9019 169.861 95.0033 168.944V164.432C96.0913 164.901 97.2113 165.339 98.3633 165.744C99.5366 166.128 100.699 166.32 101.851 166.32C103.046 166.32 103.889 166.096 104.379 165.648C104.891 165.179 105.147 164.592 105.147 163.888C105.147 163.312 104.945 162.821 104.539 162.416C104.155 162.011 103.633 161.637 102.971 161.296C102.31 160.933 101.553 160.549 100.699 160.144C100.166 159.888 99.5899 159.589 98.9713 159.248C98.3526 158.885 97.7553 158.448 97.1793 157.936C96.6246 157.403 96.1659 156.763 95.8033 156.016C95.4406 155.269 95.2593 154.373 95.2593 153.328C95.2593 151.28 95.9526 149.691 97.3393 148.56C98.7259 147.408 100.614 146.832 103.003 146.832C104.198 146.832 105.329 146.971 106.395 147.248C107.483 147.525 108.614 147.92 109.787 148.432L108.219 152.208C107.174 151.781 106.235 151.451 105.403 151.216C104.571 150.981 103.718 150.864 102.843 150.864C101.926 150.864 101.222 151.077 100.731 151.504C100.241 151.931 99.9953 152.485 99.9953 153.168C99.9953 153.979 100.358 154.619 101.083 155.088C101.809 155.557 102.886 156.133 104.315 156.816C105.489 157.371 106.481 157.947 107.291 158.544C108.123 159.141 108.763 159.845 109.211 160.656C109.659 161.467 109.883 162.469 109.883 163.664ZM120.756 170.32C118.154 170.32 116.138 169.605 114.708 168.176C113.3 166.725 112.596 164.453 112.596 161.36C112.596 159.227 112.959 157.488 113.684 156.144C114.41 154.8 115.412 153.808 116.692 153.168C117.994 152.528 119.487 152.208 121.172 152.208C122.367 152.208 123.402 152.325 124.276 152.56C125.172 152.795 125.951 153.072 126.612 153.392L125.204 157.072C124.458 156.773 123.754 156.528 123.092 156.336C122.452 156.144 121.812 156.048 121.172 156.048C118.698 156.048 117.46 157.808 117.46 161.328C117.46 163.077 117.78 164.368 118.42 165.2C119.082 166.032 119.999 166.448 121.172 166.448C122.175 166.448 123.06 166.32 123.828 166.064C124.596 165.787 125.343 165.413 126.068 164.944V169.008C125.343 169.477 124.575 169.808 123.764 170C122.975 170.213 121.972 170.32 120.756 170.32ZM134.858 150.64C134.858 151.493 134.826 152.315 134.762 153.104C134.719 153.893 134.676 154.448 134.634 154.768H134.89C135.444 153.872 136.159 153.221 137.034 152.816C137.908 152.411 138.879 152.208 139.946 152.208C141.844 152.208 143.359 152.72 144.49 153.744C145.642 154.747 146.218 156.368 146.218 158.608V170H141.45V159.792C141.45 157.275 140.511 156.016 138.634 156.016C137.204 156.016 136.212 156.517 135.658 157.52C135.124 158.501 134.858 159.92 134.858 161.776V170H130.09V145.68H134.858V150.64ZM166.993 161.232C166.993 164.133 166.225 166.373 164.689 167.952C163.174 169.531 161.105 170.32 158.481 170.32C156.86 170.32 155.409 169.968 154.129 169.264C152.87 168.56 151.878 167.536 151.153 166.192C150.428 164.827 150.065 163.173 150.065 161.232C150.065 158.331 150.822 156.101 152.337 154.544C153.852 152.987 155.932 152.208 158.577 152.208C160.22 152.208 161.67 152.56 162.929 153.264C164.188 153.968 165.18 154.992 165.905 156.336C166.63 157.659 166.993 159.291 166.993 161.232ZM154.929 161.232C154.929 162.96 155.206 164.272 155.761 165.168C156.337 166.043 157.265 166.48 158.545 166.48C159.804 166.48 160.71 166.043 161.265 165.168C161.841 164.272 162.129 162.96 162.129 161.232C162.129 159.504 161.841 158.213 161.265 157.36C160.71 156.485 159.793 156.048 158.513 156.048C157.254 156.048 156.337 156.485 155.761 157.36C155.206 158.213 154.929 159.504 154.929 161.232ZM186.806 161.232C186.806 164.133 186.038 166.373 184.502 167.952C182.987 169.531 180.918 170.32 178.294 170.32C176.672 170.32 175.222 169.968 173.942 169.264C172.683 168.56 171.691 167.536 170.966 166.192C170.24 164.827 169.878 163.173 169.878 161.232C169.878 158.331 170.635 156.101 172.15 154.544C173.664 152.987 175.744 152.208 178.39 152.208C180.032 152.208 181.483 152.56 182.742 153.264C184 153.968 184.992 154.992 185.718 156.336C186.443 157.659 186.806 159.291 186.806 161.232ZM174.742 161.232C174.742 162.96 175.019 164.272 175.574 165.168C176.15 166.043 177.078 166.48 178.358 166.48C179.616 166.48 180.523 166.043 181.078 165.168C181.654 164.272 181.942 162.96 181.942 161.232C181.942 159.504 181.654 158.213 181.078 157.36C180.523 156.485 179.606 156.048 178.326 156.048C177.067 156.048 176.15 156.485 175.574 157.36C175.019 158.213 174.742 159.504 174.742 161.232ZM195.514 170H190.746V145.68H195.514V170Z" fill="black" fill-opacity="0.87"/>
<path d="M26.16 222V204.864H29.784V219H36.744V222H26.16ZM51.3463 215.424C51.3463 217.6 50.7703 219.28 49.6183 220.464C48.4823 221.648 46.9303 222.24 44.9623 222.24C43.7463 222.24 42.6583 221.976 41.6983 221.448C40.7543 220.92 40.0103 220.152 39.4663 219.144C38.9223 218.12 38.6503 216.88 38.6503 215.424C38.6503 213.248 39.2183 211.576 40.3543 210.408C41.4903 209.24 43.0503 208.656 45.0343 208.656C46.2663 208.656 47.3543 208.92 48.2983 209.448C49.2423 209.976 49.9863 210.744 50.5303 211.752C51.0743 212.744 51.3463 213.968 51.3463 215.424ZM42.2983 215.424C42.2983 216.72 42.5063 217.704 42.9223 218.376C43.3543 219.032 44.0503 219.36 45.0103 219.36C45.9543 219.36 46.6343 219.032 47.0503 218.376C47.4823 217.704 47.6983 216.72 47.6983 215.424C47.6983 214.128 47.4823 213.16 47.0503 212.52C46.6343 211.864 45.9463 211.536 44.9863 211.536C44.0423 211.536 43.3543 211.864 42.9223 212.52C42.5063 213.16 42.2983 214.128 42.2983 215.424ZM61.6217 208.656C61.7977 208.656 62.0057 208.664 62.2457 208.68C62.4857 208.696 62.6777 208.72 62.8217 208.752L62.5577 212.112C62.4457 212.08 62.2777 212.056 62.0537 212.04C61.8457 212.008 61.6617 211.992 61.5017 211.992C60.8937 211.992 60.3097 212.104 59.7497 212.328C59.1897 212.536 58.7337 212.88 58.3817 213.36C58.0457 213.84 57.8777 214.496 57.8777 215.328V222H54.3017V208.896H57.0137L57.5417 211.104H57.7097C58.0937 210.432 58.6217 209.856 59.2937 209.376C59.9657 208.896 60.7417 208.656 61.6217 208.656ZM70.1314 208.656C71.9394 208.656 73.3714 209.176 74.4274 210.216C75.4834 211.24 76.0114 212.704 76.0114 214.608V216.336H67.5634C67.5954 217.344 67.8914 218.136 68.4514 218.712C69.0274 219.288 69.8194 219.576 70.8274 219.576C71.6754 219.576 72.4434 219.496 73.1314 219.336C73.8194 219.16 74.5314 218.896 75.2674 218.544V221.304C74.6274 221.624 73.9474 221.856 73.2274 222C72.5234 222.16 71.6674 222.24 70.6594 222.24C69.3474 222.24 68.1874 222 67.1794 221.52C66.1714 221.024 65.3794 220.28 64.8034 219.288C64.2274 218.296 63.9394 217.048 63.9394 215.544C63.9394 214.008 64.1954 212.736 64.7074 211.728C65.2354 210.704 65.9634 209.936 66.8914 209.424C67.8194 208.912 68.8994 208.656 70.1314 208.656ZM70.1554 211.2C69.4674 211.2 68.8914 211.424 68.4274 211.872C67.9794 212.32 67.7154 213.016 67.6354 213.96H72.6514C72.6354 213.16 72.4274 212.504 72.0274 211.992C71.6274 211.464 71.0034 211.2 70.1554 211.2ZM94.2951 208.656C95.7831 208.656 96.9031 209.04 97.6551 209.808C98.4231 210.56 98.8071 211.776 98.8071 213.456V222H95.2311V214.344C95.2311 212.456 94.5751 211.512 93.2631 211.512C92.3191 211.512 91.6471 211.848 91.2471 212.52C90.8471 213.192 90.6471 214.16 90.6471 215.424V222H87.0711V214.344C87.0711 212.456 86.4151 211.512 85.1031 211.512C84.1111 211.512 83.4231 211.888 83.0391 212.64C82.6711 213.376 82.4871 214.44 82.4871 215.832V222H78.9111V208.896H81.6471L82.1271 210.576H82.3191C82.7191 209.904 83.2631 209.416 83.9511 209.112C84.6551 208.808 85.3831 208.656 86.1351 208.656C87.0951 208.656 87.9111 208.816 88.5831 209.136C89.2551 209.44 89.7671 209.92 90.1191 210.576H90.4311C90.8311 209.904 91.3831 209.416 92.0871 209.112C92.8071 208.808 93.5431 208.656 94.2951 208.656ZM110.524 203.76C111.052 203.76 111.508 203.888 111.892 204.144C112.276 204.384 112.468 204.84 112.468 205.512C112.468 206.168 112.276 206.624 111.892 206.88C111.508 207.136 111.052 207.264 110.524 207.264C109.98 207.264 109.516 207.136 109.132 206.88C108.764 206.624 108.58 206.168 108.58 205.512C108.58 204.84 108.764 204.384 109.132 204.144C109.516 203.888 109.98 203.76 110.524 203.76ZM112.3 208.896V222H108.724V208.896H112.3ZM123.332 208.656C124.804 208.656 125.996 209.232 126.908 210.384C127.82 211.52 128.276 213.2 128.276 215.424C128.276 217.648 127.804 219.344 126.86 220.512C125.916 221.664 124.708 222.24 123.236 222.24C122.292 222.24 121.54 222.072 120.98 221.736C120.42 221.384 119.964 220.992 119.612 220.56H119.42C119.548 221.232 119.612 221.872 119.612 222.48V227.76H116.036V208.896H118.94L119.444 210.6H119.612C119.964 210.072 120.436 209.616 121.028 209.232C121.62 208.848 122.388 208.656 123.332 208.656ZM122.18 211.512C121.252 211.512 120.596 211.8 120.212 212.376C119.844 212.952 119.644 213.832 119.612 215.016V215.4C119.612 216.664 119.796 217.64 120.164 218.328C120.548 219 121.236 219.336 122.228 219.336C123.044 219.336 123.644 219 124.028 218.328C124.428 217.64 124.628 216.656 124.628 215.376C124.628 212.8 123.812 211.512 122.18 211.512ZM140.368 218.112C140.368 219.44 139.896 220.464 138.952 221.184C138.024 221.888 136.632 222.24 134.776 222.24C133.864 222.24 133.08 222.176 132.424 222.048C131.768 221.936 131.112 221.744 130.456 221.472V218.52C131.16 218.84 131.92 219.104 132.736 219.312C133.552 219.52 134.272 219.624 134.896 219.624C135.6 219.624 136.096 219.52 136.384 219.312C136.688 219.104 136.84 218.832 136.84 218.496C136.84 218.272 136.776 218.072 136.648 217.896C136.536 217.72 136.28 217.52 135.88 217.296C135.48 217.072 134.856 216.784 134.008 216.432C133.192 216.08 132.52 215.736 131.992 215.4C131.464 215.048 131.072 214.632 130.816 214.152C130.56 213.656 130.432 213.04 130.432 212.304C130.432 211.088 130.904 210.176 131.848 209.568C132.792 208.96 134.048 208.656 135.616 208.656C136.432 208.656 137.208 208.736 137.944 208.896C138.68 209.056 139.44 209.32 140.224 209.688L139.144 212.256C138.504 211.984 137.896 211.76 137.32 211.584C136.744 211.392 136.16 211.296 135.568 211.296C134.512 211.296 133.984 211.584 133.984 212.16C133.984 212.368 134.048 212.56 134.176 212.736C134.32 212.896 134.584 213.072 134.968 213.264C135.368 213.456 135.952 213.712 136.72 214.032C137.472 214.336 138.12 214.656 138.664 214.992C139.208 215.312 139.624 215.72 139.912 216.216C140.216 216.696 140.368 217.328 140.368 218.112ZM155.177 208.896V222H152.441L151.961 220.32H151.769C151.353 220.992 150.777 221.48 150.041 221.784C149.321 222.088 148.553 222.24 147.737 222.24C146.329 222.24 145.201 221.864 144.353 221.112C143.505 220.344 143.081 219.12 143.081 217.44V208.896H146.657V216.552C146.657 217.48 146.825 218.184 147.161 218.664C147.497 219.144 148.033 219.384 148.769 219.384C149.857 219.384 150.601 219.016 151.001 218.28C151.401 217.528 151.601 216.456 151.601 215.064V208.896H155.177ZM174.311 208.656C175.799 208.656 176.919 209.04 177.671 209.808C178.439 210.56 178.823 211.776 178.823 213.456V222H175.247V214.344C175.247 212.456 174.591 211.512 173.279 211.512C172.335 211.512 171.663 211.848 171.263 212.52C170.863 213.192 170.663 214.16 170.663 215.424V222H167.087V214.344C167.087 212.456 166.431 211.512 165.119 211.512C164.127 211.512 163.439 211.888 163.055 212.64C162.687 213.376 162.503 214.44 162.503 215.832V222H158.927V208.896H161.663L162.143 210.576H162.335C162.735 209.904 163.279 209.416 163.967 209.112C164.671 208.808 165.399 208.656 166.151 208.656C167.111 208.656 167.927 208.816 168.599 209.136C169.271 209.44 169.783 209.92 170.135 210.576H170.447C170.847 209.904 171.399 209.416 172.103 209.112C172.823 208.808 173.559 208.656 174.311 208.656ZM192.891 222.24C191.435 222.24 190.243 221.672 189.315 220.536C188.403 219.384 187.947 217.696 187.947 215.472C187.947 213.232 188.411 211.536 189.339 210.384C190.267 209.232 191.483 208.656 192.987 208.656C193.931 208.656 194.707 208.84 195.315 209.208C195.923 209.576 196.403 210.032 196.755 210.576H196.875C196.827 210.32 196.771 209.952 196.707 209.472C196.643 208.976 196.611 208.472 196.611 207.96V203.76H200.187V222H197.451L196.755 220.296H196.611C196.259 220.84 195.787 221.304 195.195 221.688C194.603 222.056 193.835 222.24 192.891 222.24ZM194.139 219.384C195.131 219.384 195.827 219.096 196.227 218.52C196.627 217.928 196.835 217.048 196.851 215.88V215.496C196.851 214.216 196.651 213.24 196.251 212.568C195.867 211.896 195.147 211.56 194.091 211.56C193.307 211.56 192.691 211.904 192.243 212.592C191.795 213.264 191.571 214.24 191.571 215.52C191.571 216.8 191.795 217.768 192.243 218.424C192.691 219.064 193.323 219.384 194.139 219.384ZM215.831 215.424C215.831 217.6 215.255 219.28 214.103 220.464C212.967 221.648 211.415 222.24 209.447 222.24C208.231 222.24 207.143 221.976 206.183 221.448C205.239 220.92 204.495 220.152 203.951 219.144C203.407 218.12 203.135 216.88 203.135 215.424C203.135 213.248 203.703 211.576 204.839 210.408C205.975 209.24 207.535 208.656 209.519 208.656C210.751 208.656 211.839 208.92 212.783 209.448C213.727 209.976 214.471 210.744 215.015 211.752C215.559 212.744 215.831 213.968 215.831 215.424ZM206.783 215.424C206.783 216.72 206.991 217.704 207.407 218.376C207.839 219.032 208.535 219.36 209.495 219.36C210.439 219.36 211.119 219.032 211.535 218.376C211.967 217.704 212.183 216.72 212.183 215.424C212.183 214.128 211.967 213.16 211.535 212.52C211.119 211.864 210.431 211.536 209.471 211.536C208.527 211.536 207.839 211.864 207.407 212.52C206.991 213.16 206.783 214.128 206.783 215.424ZM222.362 222H218.786V203.76H222.362V222ZM238.003 215.424C238.003 217.6 237.427 219.28 236.275 220.464C235.139 221.648 233.587 222.24 231.619 222.24C230.403 222.24 229.315 221.976 228.355 221.448C227.411 220.92 226.667 220.152 226.123 219.144C225.579 218.12 225.307 216.88 225.307 215.424C225.307 213.248 225.875 211.576 227.011 210.408C228.147 209.24 229.707 208.656 231.691 208.656C232.923 208.656 234.011 208.92 234.955 209.448C235.899 209.976 236.643 210.744 237.187 211.752C237.731 212.744 238.003 213.968 238.003 215.424ZM228.955 215.424C228.955 216.72 229.163 217.704 229.579 218.376C230.011 219.032 230.707 219.36 231.667 219.36C232.611 219.36 233.291 219.032 233.707 218.376C234.139 217.704 234.355 216.72 234.355 215.424C234.355 214.128 234.139 213.16 233.707 212.52C233.291 211.864 232.603 211.536 231.643 211.536C230.699 211.536 230.011 211.864 229.579 212.52C229.163 213.16 228.955 214.128 228.955 215.424ZM248.278 208.656C248.454 208.656 248.662 208.664 248.902 208.68C249.142 208.696 249.334 208.72 249.478 208.752L249.214 212.112C249.102 212.08 248.934 212.056 248.71 212.04C248.502 212.008 248.318 211.992 248.158 211.992C247.55 211.992 246.966 212.104 246.406 212.328C245.846 212.536 245.39 212.88 245.038 213.36C244.702 213.84 244.534 214.496 244.534 215.328V222H240.958V208.896H243.67L244.198 211.104H244.366C244.75 210.432 245.278 209.856 245.95 209.376C246.622 208.896 247.398 208.656 248.278 208.656ZM267.235 218.112C267.235 219.44 266.763 220.464 265.819 221.184C264.891 221.888 263.499 222.24 261.643 222.24C260.731 222.24 259.947 222.176 259.291 222.048C258.635 221.936 257.979 221.744 257.323 221.472V218.52C258.027 218.84 258.787 219.104 259.603 219.312C260.419 219.52 261.139 219.624 261.763 219.624C262.467 219.624 262.963 219.52 263.251 219.312C263.555 219.104 263.707 218.832 263.707 218.496C263.707 218.272 263.643 218.072 263.515 217.896C263.403 217.72 263.147 217.52 262.747 217.296C262.347 217.072 261.723 216.784 260.875 216.432C260.059 216.08 259.387 215.736 258.859 215.4C258.331 215.048 257.939 214.632 257.683 214.152C257.427 213.656 257.299 213.04 257.299 212.304C257.299 211.088 257.771 210.176 258.715 209.568C259.659 208.96 260.915 208.656 262.483 208.656C263.299 208.656 264.075 208.736 264.811 208.896C265.547 209.056 266.307 209.32 267.091 209.688L266.011 212.256C265.371 211.984 264.763 211.76 264.187 211.584C263.611 211.392 263.027 211.296 262.435 211.296C261.379 211.296 260.851 211.584 260.851 212.16C260.851 212.368 260.915 212.56 261.043 212.736C261.187 212.896 261.451 213.072 261.835 213.264C262.235 213.456 262.819 213.712 263.587 214.032C264.339 214.336 264.987 214.656 265.531 214.992C266.075 215.312 266.491 215.72 266.779 216.216C267.083 216.696 267.235 217.328 267.235 218.112ZM271.82 203.76C272.348 203.76 272.804 203.888 273.188 204.144C273.572 204.384 273.764 204.84 273.764 205.512C273.764 206.168 273.572 206.624 273.188 206.88C272.804 207.136 272.348 207.264 271.82 207.264C271.276 207.264 270.812 207.136 270.428 206.88C270.06 206.624 269.876 206.168 269.876 205.512C269.876 204.84 270.06 204.384 270.428 204.144C270.812 203.888 271.276 203.76 271.82 203.76ZM273.596 208.896V222H270.02V208.896H273.596ZM282.853 219.384C283.253 219.384 283.637 219.344 284.005 219.264C284.373 219.184 284.741 219.088 285.109 218.976V221.64C284.725 221.8 284.245 221.936 283.669 222.048C283.109 222.176 282.493 222.24 281.821 222.24C281.037 222.24 280.333 222.112 279.709 221.856C279.101 221.6 278.613 221.16 278.245 220.536C277.893 219.896 277.717 219.016 277.717 217.896V211.584H276.013V210.072L277.981 208.872L279.013 206.112H281.293V208.896H284.965V211.584H281.293V217.896C281.293 218.392 281.437 218.768 281.725 219.024C282.013 219.264 282.389 219.384 282.853 219.384ZM299.35 208.632C301.11 208.632 302.454 209.016 303.382 209.784C304.326 210.536 304.798 211.696 304.798 213.264V222H302.302L301.606 220.224H301.51C300.95 220.928 300.358 221.44 299.734 221.76C299.11 222.08 298.254 222.24 297.166 222.24C295.998 222.24 295.03 221.904 294.262 221.232C293.494 220.544 293.11 219.496 293.11 218.088C293.11 216.696 293.598 215.672 294.574 215.016C295.55 214.344 297.014 213.976 298.966 213.912L301.246 213.84V213.264C301.246 212.576 301.062 212.072 300.694 211.752C300.342 211.432 299.846 211.272 299.206 211.272C298.566 211.272 297.942 211.368 297.334 211.56C296.726 211.736 296.118 211.96 295.51 212.232L294.334 209.808C295.038 209.44 295.814 209.152 296.662 208.944C297.526 208.736 298.422 208.632 299.35 208.632ZM299.854 215.976C298.702 216.008 297.902 216.216 297.454 216.6C297.006 216.984 296.782 217.488 296.782 218.112C296.782 218.656 296.942 219.048 297.262 219.288C297.582 219.512 297.998 219.624 298.51 219.624C299.278 219.624 299.926 219.4 300.454 218.952C300.982 218.488 301.246 217.84 301.246 217.008V215.928L299.854 215.976ZM323.842 208.656C325.33 208.656 326.45 209.04 327.202 209.808C327.97 210.56 328.354 211.776 328.354 213.456V222H324.778V214.344C324.778 212.456 324.122 211.512 322.81 211.512C321.866 211.512 321.194 211.848 320.794 212.52C320.394 213.192 320.194 214.16 320.194 215.424V222H316.618V214.344C316.618 212.456 315.962 211.512 314.65 211.512C313.658 211.512 312.97 211.888 312.586 212.64C312.218 213.376 312.034 214.44 312.034 215.832V222H308.458V208.896H311.194L311.674 210.576H311.866C312.266 209.904 312.81 209.416 313.498 209.112C314.202 208.808 314.93 208.656 315.682 208.656C316.642 208.656 317.458 208.816 318.13 209.136C318.802 209.44 319.314 209.92 319.666 210.576H319.978C320.378 209.904 320.93 209.416 321.634 209.112C322.354 208.808 323.09 208.656 323.842 208.656ZM337.436 208.656C339.244 208.656 340.676 209.176 341.732 210.216C342.788 211.24 343.316 212.704 343.316 214.608V216.336H334.868C334.9 217.344 335.196 218.136 335.756 218.712C336.332 219.288 337.124 219.576 338.132 219.576C338.98 219.576 339.748 219.496 340.436 219.336C341.124 219.16 341.836 218.896 342.572 218.544V221.304C341.932 221.624 341.252 221.856 340.532 222C339.828 222.16 338.972 222.24 337.964 222.24C336.652 222.24 335.492 222 334.484 221.52C333.476 221.024 332.684 220.28 332.108 219.288C331.532 218.296 331.244 217.048 331.244 215.544C331.244 214.008 331.5 212.736 332.012 211.728C332.54 210.704 333.268 209.936 334.196 209.424C335.124 208.912 336.204 208.656 337.436 208.656ZM337.46 211.2C336.772 211.2 336.196 211.424 335.732 211.872C335.284 212.32 335.02 213.016 334.94 213.96H339.956C339.94 213.16 339.732 212.504 339.332 211.992C338.932 211.464 338.308 211.2 337.46 211.2ZM351.736 219.384C352.136 219.384 352.52 219.344 352.888 219.264C353.256 219.184 353.624 219.088 353.992 218.976V221.64C353.608 221.8 353.128 221.936 352.552 222.048C351.992 222.176 351.376 222.24 350.704 222.24C349.92 222.24 349.216 222.112 348.592 221.856C347.984 221.6 347.496 221.16 347.128 220.536C346.776 219.896 346.6 219.016 346.6 217.896V211.584H344.896V210.072L346.864 208.872L347.896 206.112H350.176V208.896H353.848V211.584H350.176V217.896C350.176 218.392 350.32 218.768 350.608 219.024C350.896 219.264 351.272 219.384 351.736 219.384ZM360.126 219.48C359.918 220.328 359.622 221.256 359.238 222.264C358.854 223.272 358.462 224.216 358.062 225.096H355.494C355.718 224.152 355.942 223.144 356.166 222.072C356.39 221 356.558 220.048 356.67 219.216H359.958L360.126 219.48ZM31.2 255.24C29.248 255.24 27.736 254.704 26.664 253.632C25.608 252.544 25.08 250.84 25.08 248.52C25.08 246.92 25.352 245.616 25.896 244.608C26.44 243.6 27.192 242.856 28.152 242.376C29.128 241.896 30.248 241.656 31.512 241.656C32.408 241.656 33.184 241.744 33.84 241.92C34.512 242.096 35.096 242.304 35.592 242.544L34.536 245.304C33.976 245.08 33.448 244.896 32.952 244.752C32.472 244.608 31.992 244.536 31.512 244.536C29.656 244.536 28.728 245.856 28.728 248.496C28.728 249.808 28.968 250.776 29.448 251.4C29.944 252.024 30.632 252.336 31.512 252.336C32.264 252.336 32.928 252.24 33.504 252.048C34.08 251.84 34.64 251.56 35.184 251.208V254.256C34.64 254.608 34.064 254.856 33.456 255C32.864 255.16 32.112 255.24 31.2 255.24ZM50.1041 248.424C50.1041 250.6 49.5281 252.28 48.3761 253.464C47.2401 254.648 45.6881 255.24 43.7201 255.24C42.5041 255.24 41.4161 254.976 40.4561 254.448C39.5121 253.92 38.7681 253.152 38.2241 252.144C37.6801 251.12 37.4081 249.88 37.4081 248.424C37.4081 246.248 37.9761 244.576 39.1121 243.408C40.2481 242.24 41.8081 241.656 43.7921 241.656C45.0241 241.656 46.1121 241.92 47.0561 242.448C48.0001 242.976 48.7441 243.744 49.2881 244.752C49.8321 245.744 50.1041 246.968 50.1041 248.424ZM41.0561 248.424C41.0561 249.72 41.2641 250.704 41.6801 251.376C42.1121 252.032 42.8081 252.36 43.7681 252.36C44.7121 252.36 45.3921 252.032 45.8081 251.376C46.2401 250.704 46.4561 249.72 46.4561 248.424C46.4561 247.128 46.2401 246.16 45.8081 245.52C45.3921 244.864 44.7041 244.536 43.7441 244.536C42.8001 244.536 42.1121 244.864 41.6801 245.52C41.2641 246.16 41.0561 247.128 41.0561 248.424ZM60.4995 241.656C61.9075 241.656 63.0355 242.04 63.8835 242.808C64.7315 243.56 65.1555 244.776 65.1555 246.456V255H61.5795V247.344C61.5795 246.4 61.4115 245.696 61.0755 245.232C60.7395 244.752 60.2035 244.512 59.4675 244.512C58.3795 244.512 57.6355 244.888 57.2355 245.64C56.8355 246.376 56.6355 247.44 56.6355 248.832V255H53.0595V241.896H55.7955L56.2755 243.576H56.4675C56.8835 242.904 57.4515 242.416 58.1715 242.112C58.9075 241.808 59.6835 241.656 60.4995 241.656ZM77.9769 251.112C77.9769 252.44 77.5049 253.464 76.5609 254.184C75.6329 254.888 74.2409 255.24 72.3849 255.24C71.4729 255.24 70.6889 255.176 70.0329 255.048C69.3769 254.936 68.7209 254.744 68.0649 254.472V251.52C68.7689 251.84 69.5289 252.104 70.3449 252.312C71.1609 252.52 71.8809 252.624 72.5049 252.624C73.2089 252.624 73.7049 252.52 73.9929 252.312C74.2969 252.104 74.4489 251.832 74.4489 251.496C74.4489 251.272 74.3849 251.072 74.2569 250.896C74.1449 250.72 73.8889 250.52 73.4889 250.296C73.0889 250.072 72.4649 249.784 71.6169 249.432C70.8009 249.08 70.1289 248.736 69.6009 248.4C69.0729 248.048 68.6809 247.632 68.4249 247.152C68.1689 246.656 68.0409 246.04 68.0409 245.304C68.0409 244.088 68.5129 243.176 69.4569 242.568C70.4009 241.96 71.6569 241.656 73.2249 241.656C74.0409 241.656 74.8169 241.736 75.5529 241.896C76.2889 242.056 77.0489 242.32 77.8329 242.688L76.7529 245.256C76.1129 244.984 75.5049 244.76 74.9289 244.584C74.3529 244.392 73.7689 244.296 73.1769 244.296C72.1209 244.296 71.5929 244.584 71.5929 245.16C71.5929 245.368 71.6569 245.56 71.7849 245.736C71.9289 245.896 72.1929 246.072 72.5769 246.264C72.9769 246.456 73.5609 246.712 74.3289 247.032C75.0809 247.336 75.7289 247.656 76.2729 247.992C76.8169 248.312 77.2329 248.72 77.5209 249.216C77.8249 249.696 77.9769 250.328 77.9769 251.112ZM86.1626 241.656C87.9706 241.656 89.4026 242.176 90.4586 243.216C91.5146 244.24 92.0426 245.704 92.0426 247.608V249.336H83.5946C83.6266 250.344 83.9226 251.136 84.4826 251.712C85.0586 252.288 85.8506 252.576 86.8586 252.576C87.7066 252.576 88.4746 252.496 89.1626 252.336C89.8506 252.16 90.5626 251.896 91.2986 251.544V254.304C90.6586 254.624 89.9786 254.856 89.2586 255C88.5546 255.16 87.6986 255.24 86.6906 255.24C85.3786 255.24 84.2186 255 83.2106 254.52C82.2026 254.024 81.4106 253.28 80.8346 252.288C80.2586 251.296 79.9706 250.048 79.9706 248.544C79.9706 247.008 80.2266 245.736 80.7386 244.728C81.2666 243.704 81.9946 242.936 82.9226 242.424C83.8506 241.912 84.9306 241.656 86.1626 241.656ZM86.1866 244.2C85.4986 244.2 84.9226 244.424 84.4586 244.872C84.0106 245.32 83.7466 246.016 83.6666 246.96H88.6826C88.6666 246.16 88.4586 245.504 88.0586 244.992C87.6586 244.464 87.0346 244.2 86.1866 244.2ZM100.27 255.24C98.3183 255.24 96.8063 254.704 95.7343 253.632C94.6783 252.544 94.1503 250.84 94.1503 248.52C94.1503 246.92 94.4223 245.616 94.9663 244.608C95.5103 243.6 96.2623 242.856 97.2223 242.376C98.1983 241.896 99.3183 241.656 100.582 241.656C101.478 241.656 102.254 241.744 102.91 241.92C103.582 242.096 104.166 242.304 104.662 242.544L103.606 245.304C103.046 245.08 102.518 244.896 102.022 244.752C101.542 244.608 101.062 244.536 100.582 244.536C98.7263 244.536 97.7983 245.856 97.7983 248.496C97.7983 249.808 98.0383 250.776 98.5183 251.4C99.0143 252.024 99.7023 252.336 100.582 252.336C101.334 252.336 101.998 252.24 102.574 252.048C103.15 251.84 103.71 251.56 104.254 251.208V254.256C103.71 254.608 103.134 254.856 102.526 255C101.934 255.16 101.182 255.24 100.27 255.24ZM112.79 252.384C113.19 252.384 113.574 252.344 113.942 252.264C114.31 252.184 114.678 252.088 115.046 251.976V254.64C114.662 254.8 114.182 254.936 113.606 255.048C113.046 255.176 112.43 255.24 111.758 255.24C110.974 255.24 110.27 255.112 109.646 254.856C109.038 254.6 108.55 254.16 108.182 253.536C107.83 252.896 107.654 252.016 107.654 250.896V244.584H105.95V243.072L107.918 241.872L108.95 239.112H111.23V241.896H114.902V244.584H111.23V250.896C111.23 251.392 111.374 251.768 111.662 252.024C111.95 252.264 112.326 252.384 112.79 252.384ZM123.077 241.656C124.885 241.656 126.317 242.176 127.373 243.216C128.429 244.24 128.957 245.704 128.957 247.608V249.336H120.509C120.541 250.344 120.837 251.136 121.397 251.712C121.973 252.288 122.765 252.576 123.773 252.576C124.621 252.576 125.389 252.496 126.077 252.336C126.765 252.16 127.477 251.896 128.213 251.544V254.304C127.573 254.624 126.893 254.856 126.173 255C125.469 255.16 124.613 255.24 123.605 255.24C122.293 255.24 121.133 255 120.125 254.52C119.117 254.024 118.325 253.28 117.749 252.288C117.173 251.296 116.885 250.048 116.885 248.544C116.885 247.008 117.141 245.736 117.653 244.728C118.181 243.704 118.909 242.936 119.837 242.424C120.765 241.912 121.845 241.656 123.077 241.656ZM123.101 244.2C122.413 244.2 121.837 244.424 121.373 244.872C120.925 245.32 120.661 246.016 120.581 246.96H125.597C125.581 246.16 125.373 245.504 124.973 244.992C124.573 244.464 123.949 244.2 123.101 244.2ZM137.376 252.384C137.776 252.384 138.16 252.344 138.528 252.264C138.896 252.184 139.264 252.088 139.632 251.976V254.64C139.248 254.8 138.768 254.936 138.192 255.048C137.632 255.176 137.016 255.24 136.344 255.24C135.56 255.24 134.856 255.112 134.232 254.856C133.624 254.6 133.136 254.16 132.768 253.536C132.416 252.896 132.24 252.016 132.24 250.896V244.584H130.536V243.072L132.504 241.872L133.536 239.112H135.816V241.896H139.488V244.584H135.816V250.896C135.816 251.392 135.96 251.768 136.248 252.024C136.536 252.264 136.912 252.384 137.376 252.384ZM154.287 241.896V255H151.551L151.071 253.32H150.879C150.463 253.992 149.887 254.48 149.151 254.784C148.431 255.088 147.663 255.24 146.847 255.24C145.439 255.24 144.311 254.864 143.463 254.112C142.615 253.344 142.191 252.12 142.191 250.44V241.896H145.767V249.552C145.767 250.48 145.935 251.184 146.271 251.664C146.607 252.144 147.143 252.384 147.879 252.384C148.967 252.384 149.711 252.016 150.111 251.28C150.511 250.528 150.711 249.456 150.711 248.064V241.896H154.287ZM165.356 241.656C165.532 241.656 165.74 241.664 165.98 241.68C166.22 241.696 166.412 241.72 166.556 241.752L166.292 245.112C166.18 245.08 166.012 245.056 165.788 245.04C165.58 245.008 165.396 244.992 165.236 244.992C164.628 244.992 164.044 245.104 163.484 245.328C162.924 245.536 162.468 245.88 162.116 246.36C161.78 246.84 161.612 247.496 161.612 248.328V255H158.036V241.896H160.748L161.276 244.104H161.444C161.828 243.432 162.356 242.856 163.028 242.376C163.7 241.896 164.476 241.656 165.356 241.656ZM180.545 241.632C182.305 241.632 183.649 242.016 184.577 242.784C185.521 243.536 185.993 244.696 185.993 246.264V255H183.497L182.801 253.224H182.705C182.145 253.928 181.553 254.44 180.929 254.76C180.305 255.08 179.449 255.24 178.361 255.24C177.193 255.24 176.225 254.904 175.457 254.232C174.689 253.544 174.305 252.496 174.305 251.088C174.305 249.696 174.793 248.672 175.769 248.016C176.745 247.344 178.209 246.976 180.161 246.912L182.441 246.84V246.264C182.441 245.576 182.257 245.072 181.889 244.752C181.537 244.432 181.041 244.272 180.401 244.272C179.761 244.272 179.137 244.368 178.529 244.56C177.921 244.736 177.313 244.96 176.705 245.232L175.529 242.808C176.233 242.44 177.009 242.152 177.857 241.944C178.721 241.736 179.617 241.632 180.545 241.632ZM181.049 248.976C179.897 249.008 179.097 249.216 178.649 249.6C178.201 249.984 177.977 250.488 177.977 251.112C177.977 251.656 178.137 252.048 178.457 252.288C178.777 252.512 179.193 252.624 179.705 252.624C180.473 252.624 181.121 252.4 181.649 251.952C182.177 251.488 182.441 250.84 182.441 250.008V248.928L181.049 248.976ZM193.805 255.24C192.349 255.24 191.157 254.672 190.229 253.536C189.317 252.384 188.861 250.696 188.861 248.472C188.861 246.232 189.325 244.536 190.253 243.384C191.181 242.232 192.397 241.656 193.901 241.656C194.845 241.656 195.621 241.84 196.229 242.208C196.837 242.576 197.317 243.032 197.669 243.576H197.789C197.741 243.32 197.685 242.952 197.621 242.472C197.557 241.976 197.525 241.472 197.525 240.96V236.76H201.101V255H198.365L197.669 253.296H197.525C197.173 253.84 196.701 254.304 196.109 254.688C195.517 255.056 194.749 255.24 193.805 255.24ZM195.053 252.384C196.045 252.384 196.741 252.096 197.141 251.52C197.541 250.928 197.749 250.048 197.765 248.88V248.496C197.765 247.216 197.565 246.24 197.165 245.568C196.781 244.896 196.061 244.56 195.005 244.56C194.221 244.56 193.605 244.904 193.157 245.592C192.709 246.264 192.485 247.24 192.485 248.52C192.485 249.8 192.709 250.768 193.157 251.424C193.605 252.064 194.237 252.384 195.053 252.384ZM206.641 236.76C207.169 236.76 207.625 236.888 208.009 237.144C208.393 237.384 208.585 237.84 208.585 238.512C208.585 239.168 208.393 239.624 208.009 239.88C207.625 240.136 207.169 240.264 206.641 240.264C206.097 240.264 205.633 240.136 205.249 239.88C204.881 239.624 204.697 239.168 204.697 238.512C204.697 237.84 204.881 237.384 205.249 237.144C205.633 236.888 206.097 236.76 206.641 236.76ZM208.417 241.896V255H204.841V241.896H208.417ZM219.449 241.656C220.921 241.656 222.113 242.232 223.025 243.384C223.937 244.52 224.393 246.2 224.393 248.424C224.393 250.648 223.921 252.344 222.977 253.512C222.033 254.664 220.825 255.24 219.353 255.24C218.409 255.24 217.657 255.072 217.097 254.736C216.537 254.384 216.081 253.992 215.729 253.56H215.537C215.665 254.232 215.729 254.872 215.729 255.48V260.76H212.153V241.896H215.057L215.561 243.6H215.729C216.081 243.072 216.553 242.616 217.145 242.232C217.737 241.848 218.505 241.656 219.449 241.656ZM218.297 244.512C217.369 244.512 216.713 244.8 216.329 245.376C215.961 245.952 215.761 246.832 215.729 248.016V248.4C215.729 249.664 215.913 250.64 216.281 251.328C216.665 252 217.353 252.336 218.345 252.336C219.161 252.336 219.761 252 220.145 251.328C220.545 250.64 220.745 249.656 220.745 248.376C220.745 245.8 219.929 244.512 218.297 244.512ZM229.141 236.76C229.669 236.76 230.125 236.888 230.509 237.144C230.893 237.384 231.085 237.84 231.085 238.512C231.085 239.168 230.893 239.624 230.509 239.88C230.125 240.136 229.669 240.264 229.141 240.264C228.597 240.264 228.133 240.136 227.749 239.88C227.381 239.624 227.197 239.168 227.197 238.512C227.197 237.84 227.381 237.384 227.749 237.144C228.133 236.888 228.597 236.76 229.141 236.76ZM230.917 241.896V255H227.341V241.896H230.917ZM243.797 251.112C243.797 252.44 243.325 253.464 242.381 254.184C241.453 254.888 240.061 255.24 238.205 255.24C237.293 255.24 236.509 255.176 235.853 255.048C235.197 254.936 234.541 254.744 233.885 254.472V251.52C234.589 251.84 235.349 252.104 236.165 252.312C236.981 252.52 237.701 252.624 238.325 252.624C239.029 252.624 239.525 252.52 239.813 252.312C240.117 252.104 240.269 251.832 240.269 251.496C240.269 251.272 240.205 251.072 240.077 250.896C239.965 250.72 239.709 250.52 239.309 250.296C238.909 250.072 238.285 249.784 237.437 249.432C236.621 249.08 235.949 248.736 235.421 248.4C234.893 248.048 234.501 247.632 234.245 247.152C233.989 246.656 233.861 246.04 233.861 245.304C233.861 244.088 234.333 243.176 235.277 242.568C236.221 241.96 237.477 241.656 239.045 241.656C239.861 241.656 240.637 241.736 241.373 241.896C242.109 242.056 242.869 242.32 243.653 242.688L242.573 245.256C241.933 244.984 241.325 244.76 240.749 244.584C240.173 244.392 239.589 244.296 238.997 244.296C237.941 244.296 237.413 244.584 237.413 245.16C237.413 245.368 237.477 245.56 237.605 245.736C237.749 245.896 238.013 246.072 238.397 246.264C238.797 246.456 239.381 246.712 240.149 247.032C240.901 247.336 241.549 247.656 242.093 247.992C242.637 248.312 243.053 248.72 243.341 249.216C243.645 249.696 243.797 250.328 243.797 251.112ZM251.911 255.24C249.959 255.24 248.447 254.704 247.375 253.632C246.319 252.544 245.791 250.84 245.791 248.52C245.791 246.92 246.063 245.616 246.607 244.608C247.151 243.6 247.903 242.856 248.863 242.376C249.839 241.896 250.959 241.656 252.223 241.656C253.119 241.656 253.895 241.744 254.551 241.92C255.223 242.096 255.807 242.304 256.303 242.544L255.247 245.304C254.687 245.08 254.159 244.896 253.663 244.752C253.183 244.608 252.703 244.536 252.223 244.536C250.367 244.536 249.439 245.856 249.439 248.496C249.439 249.808 249.679 250.776 250.159 251.4C250.655 252.024 251.343 252.336 252.223 252.336C252.975 252.336 253.639 252.24 254.215 252.048C254.791 251.84 255.351 251.56 255.895 251.208V254.256C255.351 254.608 254.775 254.856 254.167 255C253.575 255.16 252.823 255.24 251.911 255.24ZM260.711 236.76C261.239 236.76 261.695 236.888 262.079 237.144C262.463 237.384 262.655 237.84 262.655 238.512C262.655 239.168 262.463 239.624 262.079 239.88C261.695 240.136 261.239 240.264 260.711 240.264C260.167 240.264 259.703 240.136 259.319 239.88C258.951 239.624 258.767 239.168 258.767 238.512C258.767 237.84 258.951 237.384 259.319 237.144C259.703 236.888 260.167 236.76 260.711 236.76ZM262.487 241.896V255H258.911V241.896H262.487ZM273.664 241.656C275.072 241.656 276.2 242.04 277.048 242.808C277.896 243.56 278.32 244.776 278.32 246.456V255H274.744V247.344C274.744 246.4 274.576 245.696 274.24 245.232C273.904 244.752 273.368 244.512 272.632 244.512C271.544 244.512 270.8 244.888 270.4 245.64C270 246.376 269.8 247.44 269.8 248.832V255H266.224V241.896H268.96L269.44 243.576H269.632C270.048 242.904 270.616 242.416 271.336 242.112C272.072 241.808 272.848 241.656 273.664 241.656ZM286.245 241.656C287.861 241.656 289.125 242.296 290.037 243.576H290.133L290.421 241.896H293.445V255.024C293.445 256.896 292.893 258.32 291.789 259.296C290.685 260.272 289.053 260.76 286.893 260.76C285.965 260.76 285.101 260.704 284.301 260.592C283.517 260.48 282.749 260.28 281.997 259.992V257.136C283.613 257.808 285.317 258.144 287.109 258.144C288.949 258.144 289.869 257.152 289.869 255.168V254.904C289.869 254.632 289.877 254.352 289.893 254.064C289.925 253.776 289.949 253.52 289.965 253.296H289.869C289.421 253.984 288.885 254.48 288.261 254.784C287.637 255.088 286.933 255.24 286.149 255.24C284.597 255.24 283.381 254.648 282.501 253.464C281.637 252.264 281.205 250.6 281.205 248.472C281.205 246.328 281.653 244.656 282.549 243.456C283.445 242.256 284.677 241.656 286.245 241.656ZM287.373 244.56C285.693 244.56 284.853 245.88 284.853 248.52C284.853 251.128 285.709 252.432 287.421 252.432C288.333 252.432 289.005 252.176 289.437 251.664C289.885 251.136 290.109 250.224 290.109 248.928V248.496C290.109 247.088 289.893 246.08 289.461 245.472C289.029 244.864 288.333 244.56 287.373 244.56ZM308.819 241.656C310.627 241.656 312.059 242.176 313.115 243.216C314.171 244.24 314.699 245.704 314.699 247.608V249.336H306.251C306.283 250.344 306.579 251.136 307.139 251.712C307.715 252.288 308.507 252.576 309.515 252.576C310.363 252.576 311.131 252.496 311.819 252.336C312.507 252.16 313.219 251.896 313.955 251.544V254.304C313.315 254.624 312.635 254.856 311.915 255C311.211 255.16 310.355 255.24 309.347 255.24C308.035 255.24 306.875 255 305.867 254.52C304.859 254.024 304.067 253.28 303.491 252.288C302.915 251.296 302.627 250.048 302.627 248.544C302.627 247.008 302.883 245.736 303.395 244.728C303.923 243.704 304.651 242.936 305.579 242.424C306.507 241.912 307.587 241.656 308.819 241.656ZM308.843 244.2C308.155 244.2 307.579 244.424 307.115 244.872C306.667 245.32 306.403 246.016 306.323 246.96H311.339C311.323 246.16 311.115 245.504 310.715 244.992C310.315 244.464 309.691 244.2 308.843 244.2ZM321.175 255H317.599V236.76H321.175V255ZM326.711 236.76C327.239 236.76 327.695 236.888 328.079 237.144C328.463 237.384 328.655 237.84 328.655 238.512C328.655 239.168 328.463 239.624 328.079 239.88C327.695 240.136 327.239 240.264 326.711 240.264C326.167 240.264 325.703 240.136 325.319 239.88C324.951 239.624 324.767 239.168 324.767 238.512C324.767 237.84 324.951 237.384 325.319 237.144C325.703 236.888 326.167 236.76 326.711 236.76ZM328.487 241.896V255H324.911V241.896H328.487ZM337.744 252.384C338.144 252.384 338.528 252.344 338.896 252.264C339.264 252.184 339.632 252.088 340 251.976V254.64C339.616 254.8 339.136 254.936 338.56 255.048C338 255.176 337.384 255.24 336.712 255.24C335.928 255.24 335.224 255.112 334.6 254.856C333.992 254.6 333.504 254.16 333.136 253.536C332.784 252.896 332.608 252.016 332.608 250.896V244.584H330.904V243.072L332.872 241.872L333.904 239.112H336.184V241.896H339.856V244.584H336.184V250.896C336.184 251.392 336.328 251.768 336.616 252.024C336.904 252.264 337.28 252.384 337.744 252.384ZM360.888 241.896V255H358.152L357.672 253.32H357.48C357.064 253.992 356.488 254.48 355.752 254.784C355.032 255.088 354.264 255.24 353.448 255.24C352.04 255.24 350.912 254.864 350.064 254.112C349.216 253.344 348.792 252.12 348.792 250.44V241.896H352.368V249.552C352.368 250.48 352.536 251.184 352.872 251.664C353.208 252.144 353.744 252.384 354.48 252.384C355.568 252.384 356.312 252.016 356.712 251.28C357.112 250.528 357.312 249.456 357.312 248.064V241.896H360.888ZM370.158 252.384C370.558 252.384 370.942 252.344 371.31 252.264C371.678 252.184 372.046 252.088 372.414 251.976V254.64C372.03 254.8 371.55 254.936 370.974 255.048C370.414 255.176 369.798 255.24 369.126 255.24C368.342 255.24 367.638 255.112 367.014 254.856C366.406 254.6 365.918 254.16 365.55 253.536C365.198 252.896 365.022 252.016 365.022 250.896V244.584H363.318V243.072L365.286 241.872L366.318 239.112H368.598V241.896H372.27V244.584H368.598V250.896C368.598 251.392 368.742 251.768 369.03 252.024C369.318 252.264 369.694 252.384 370.158 252.384ZM31.248 274.632C33.008 274.632 34.352 275.016 35.28 275.784C36.224 276.536 36.696 277.696 36.696 279.264V288H34.2L33.504 286.224H33.408C32.848 286.928 32.256 287.44 31.632 287.76C31.008 288.08 30.152 288.24 29.064 288.24C27.896 288.24 26.928 287.904 26.16 287.232C25.392 286.544 25.008 285.496 25.008 284.088C25.008 282.696 25.496 281.672 26.472 281.016C27.448 280.344 28.912 279.976 30.864 279.912L33.144 279.84V279.264C33.144 278.576 32.96 278.072 32.592 277.752C32.24 277.432 31.744 277.272 31.104 277.272C30.464 277.272 29.84 277.368 29.232 277.56C28.624 277.736 28.016 277.96 27.408 278.232L26.232 275.808C26.936 275.44 27.712 275.152 28.56 274.944C29.424 274.736 30.32 274.632 31.248 274.632ZM31.752 281.976C30.6 282.008 29.8 282.216 29.352 282.6C28.904 282.984 28.68 283.488 28.68 284.112C28.68 284.656 28.84 285.048 29.16 285.288C29.48 285.512 29.896 285.624 30.408 285.624C31.176 285.624 31.824 285.4 32.352 284.952C32.88 284.488 33.144 283.84 33.144 283.008V281.928L31.752 281.976ZM43.9324 288H40.3564V269.76H43.9324V288ZM49.4689 269.76C49.9969 269.76 50.4529 269.888 50.8369 270.144C51.2209 270.384 51.4129 270.84 51.4129 271.512C51.4129 272.168 51.2209 272.624 50.8369 272.88C50.4529 273.136 49.9969 273.264 49.4689 273.264C48.9249 273.264 48.4609 273.136 48.0769 272.88C47.7089 272.624 47.5249 272.168 47.5249 271.512C47.5249 270.84 47.7089 270.384 48.0769 270.144C48.4609 269.888 48.9249 269.76 49.4689 269.76ZM51.2449 274.896V288H47.6689V274.896H51.2449ZM62.8534 288.264C62.8534 287.592 62.9014 286.936 62.9974 286.296H62.8534C62.5174 286.84 62.0534 287.304 61.4614 287.688C60.8694 288.056 60.0934 288.24 59.1334 288.24C57.6614 288.24 56.4694 287.672 55.5574 286.536C54.6454 285.384 54.1894 283.696 54.1894 281.472C54.1894 279.232 54.6534 277.536 55.5814 276.384C56.5094 275.232 57.7174 274.656 59.2054 274.656C60.1654 274.656 60.9414 274.84 61.5334 275.208C62.1414 275.576 62.6294 276.032 62.9974 276.576H63.0934L63.4054 274.896H66.4294V293.76H62.8534V288.264ZM60.4054 285.432C61.3974 285.432 62.0854 285.144 62.4694 284.568C62.8694 283.976 63.0774 283.096 63.0934 281.928V281.496C63.0934 280.216 62.8934 279.24 62.4934 278.568C62.1094 277.896 61.3974 277.56 60.3574 277.56C59.5094 277.56 58.8774 277.904 58.4614 278.592C58.0454 279.264 57.8374 280.24 57.8374 281.52C57.8374 284.128 58.6934 285.432 60.4054 285.432ZM82.1929 274.896V288H79.4569L78.9769 286.32H78.7849C78.3689 286.992 77.7929 287.48 77.0569 287.784C76.3369 288.088 75.5689 288.24 74.7529 288.24C73.3449 288.24 72.2169 287.864 71.3689 287.112C70.5209 286.344 70.0969 285.12 70.0969 283.44V274.896H73.6729V282.552C73.6729 283.48 73.8409 284.184 74.1769 284.664C74.5129 285.144 75.0489 285.384 75.7849 285.384C76.8729 285.384 77.6169 285.016 78.0169 284.28C78.4169 283.528 78.6169 282.456 78.6169 281.064V274.896H82.1929ZM91.3183 274.632C93.0783 274.632 94.4223 275.016 95.3503 275.784C96.2943 276.536 96.7663 277.696 96.7663 279.264V288H94.2703L93.5743 286.224H93.4783C92.9183 286.928 92.3263 287.44 91.7023 287.76C91.0783 288.08 90.2223 288.24 89.1343 288.24C87.9663 288.24 86.9983 287.904 86.2303 287.232C85.4623 286.544 85.0783 285.496 85.0783 284.088C85.0783 282.696 85.5663 281.672 86.5423 281.016C87.5183 280.344 88.9823 279.976 90.9343 279.912L93.2143 279.84V279.264C93.2143 278.576 93.0303 278.072 92.6623 277.752C92.3103 277.432 91.8143 277.272 91.1743 277.272C90.5343 277.272 89.9103 277.368 89.3023 277.56C88.6943 277.736 88.0863 277.96 87.4783 278.232L86.3023 275.808C87.0063 275.44 87.7823 275.152 88.6303 274.944C89.4943 274.736 90.3903 274.632 91.3183 274.632ZM91.8223 281.976C90.6703 282.008 89.8703 282.216 89.4223 282.6C88.9743 282.984 88.7503 283.488 88.7503 284.112C88.7503 284.656 88.9103 285.048 89.2303 285.288C89.5503 285.512 89.9663 285.624 90.4783 285.624C91.2463 285.624 91.8943 285.4 92.4223 284.952C92.9503 284.488 93.2143 283.84 93.2143 283.008V281.928L91.8223 281.976ZM115.811 274.656C117.299 274.656 118.419 275.04 119.171 275.808C119.939 276.56 120.323 277.776 120.323 279.456V288H116.747V280.344C116.747 278.456 116.091 277.512 114.779 277.512C113.835 277.512 113.163 277.848 112.763 278.52C112.363 279.192 112.163 280.16 112.163 281.424V288H108.587V280.344C108.587 278.456 107.931 277.512 106.619 277.512C105.627 277.512 104.939 277.888 104.555 278.64C104.187 279.376 104.003 280.44 104.003 281.832V288H100.427V274.896H103.163L103.643 276.576H103.835C104.235 275.904 104.779 275.416 105.467 275.112C106.171 274.808 106.899 274.656 107.651 274.656C108.611 274.656 109.427 274.816 110.099 275.136C110.771 275.44 111.283 275.92 111.635 276.576H111.947C112.347 275.904 112.899 275.416 113.603 275.112C114.323 274.808 115.059 274.656 115.811 274.656ZM127.509 285.48C127.301 286.328 127.005 287.256 126.621 288.264C126.237 289.272 125.845 290.216 125.445 291.096H122.877C123.101 290.152 123.325 289.144 123.549 288.072C123.773 287 123.941 286.048 124.053 285.216H127.341L127.509 285.48Z" fill="black" fill-opacity="0.6"/>
<rect x="24" y="24" width="96" height="96" fill="#D6F2FF"/>
<path d="M72 61.2L89.0667 69.7333V103.867H54.9333V69.7333L72 61.2ZM72 61.2V42V61.2ZM40 103.867H104H40ZM46.4 103.867V78.2667H54.9333L46.4 103.867ZM97.6 103.867V78.2667H89.0667L97.6 103.867ZM67.7333 103.867V91.0667H76.2667V103.867H67.7333ZM72 44.1333H84.8V52.6667H72V44.1333ZM72 82.5333C70.8684 82.5333 69.7832 82.0838 68.983 81.2837C68.1829 80.4835 67.7333 79.3983 67.7333 78.2667C67.7333 77.1351 68.1829 76.0498 68.983 75.2497C69.7832 74.4495 70.8684 74 72 74C73.1316 74 74.2168 74.4495 75.017 75.2497C75.8171 76.0498 76.2667 77.1351 76.2667 78.2667C76.2667 79.3983 75.8171 80.4835 75.017 81.2837C74.2168 82.0838 73.1316 82.5333 72 82.5333Z" stroke="#00AEFF"/>
<rect x="0.5" y="0.5" width="399" height="319" stroke="#99DFFF"/>
</svg>
